  0
SECTION
  2
HEADER
  9
$ACADVER
  1
AC1009
  9
$INSUNITS
 70
     1
  0
ENDSEC
  0
SECTION
  2
TABLES
  0
TABLE
  2
LAYER
 70
     8
  0
LAYER
  2
0
 62
     7
 70
0
  6
CONTINUOUS
  0
LAYER
  2
1
 62
     1
 70
0
  6
CONTINUOUS
  0
LAYER
  2
2
 62
     2
 70
0
  6
CONTINUOUS
  0
LAYER
  2
3
 62
     3
 70
0
  6
CONTINUOUS
  0
LAYER
  2
4
 62
     4
 70
0
  6
CONTINUOUS
  0
LAYER
  2
5
 62
     5
 70
0
  6
CONTINUOUS
  0
LAYER
  2
6
 62
     6
 70
0
  6
CONTINUOUS
  0
LAYER
  2
7
 62
     7
 70
0
  6
CONTINUOUS
  0
ENDTAB
  0
TABLE
  2
STYLE
 70
     1
  0
STYLE
 70
     0
  2
STANDARD
  3
TXT
 40
0.00
 41
1.00
 42
1.00
 50
0.00
 71
     0
  0
ENDTAB
  0
ENDSEC
  0
SECTION
  2
BLOCKS
  0
BLOCK
  8
0
  2
EPAD
 70
0
 10
0.0
 20
0.0
  0
POLYLINE
  8
0
 66
1
 70
1
 40
0.5
 41
0.5
  0
VERTEX
  8
0
 10
-0.25
 20
0.0
 42
1.0
  0
VERTEX
  8
0
 10
0.25
 20
0.0
 42
1.0
  0
SEQEND
  8
0
  0
ENDBLK
  8
0
  0
BLOCK
  8
0
  2
RPAD
 70
0
 10
0.0
 20
0.0
  0
TRACE
  8
0
 10
-0.5
 20
-0.5
 11
-0.5
 21
0.5
 12
0.5
 22
-0.5
 13
0.5
 23
0.5
  0
ENDBLK
  8
0
  0
ENDSEC
0
SECTION
2
ENTITIES
0
POLYLINE
8
0
66
1
40
0.020000
41
0.020000
0
VERTEX
8
0
10
-4.990000
20
-3.490000
0
VERTEX
8
0
10
4.990000
20
-3.490000
0
VERTEX
8
0
10
4.990000
20
3.490000
0
VERTEX
8
0
10
-4.990000
20
3.490000
0
VERTEX
8
0
10
-4.990000
20
-3.490000
0
SEQEND
8
0
0
POLYLINE
8
0
66
1
40
0.020000
41
0.020000
0
VERTEX
8
0
10
-4.900000
20
-3.400000
0
VERTEX
8
0
10
4.900000
20
-3.400000
0
VERTEX
8
0
10
4.900000
20
3.400000
0
VERTEX
8
0
10
-4.900000
20
3.400000
0
VERTEX
8
0
10
-4.900000
20
-3.400000
0
SEQEND
8
0
0
POLYLINE
8
0
66
1
40
0.018000
41
0.018000
0
VERTEX
8
0
10
-4.900000
20
3.490000
0
VERTEX
8
0
10
-4.900000
20
3.400000
0
SEQEND
8
0
0
POLYLINE
8
0
66
1
40
0.018000
41
0.018000
0
VERTEX
8
0
10
-3.920000
20
3.490000
0
VERTEX
8
0
10
-3.920000
20
3.400000
0
SEQEND
8
0
0
POLYLINE
8
0
66
1
40
0.018000
41
0.018000
0
VERTEX
8
0
10
-4.900000
20
3.400000
0
VERTEX
8
0
10
-4.990000
20
3.400000
0
SEQEND
8
0
0
POLYLINE
8
0
66
1
40
0.018000
41
0.018000
0
VERTEX
8
0
10
1.400000
20
-3.400000
0
VERTEX
8
0
10
4.900000
20
-3.400000
0
VERTEX
8
0
10
4.900000
20
-2.570000
0
VERTEX
8
0
10
1.400000
20
-2.570000
0
VERTEX
8
0
10
1.400000
20
-3.400000
0
SEQEND
8
0
0
TEXT
8
0
10
1.450000
20
-2.710000
40
0.080000
41
1.000000
1
FILE NAME:
0
TEXT
8
0
10
1.450000
20
-3.330000
40
0.080000
41
1.000000
1
BY:
0
TEXT
8
0
10
3.980000
20
-2.690000
40
0.080000
41
1.000000
1
DATE:
0
TEXT
8
0
10
3.990000
20
-3.060000
40
0.080000
41
1.000000
1
PAGE:
0
TEXT
8
0
10
2.070000
20
-2.723000
40
0.136000
41
0.588235
1
design.pdsprj
0
TEXT
8
0
10
1.720000
20
-3.122500
40
0.140000
41
0.571429
1

0
TEXT
8
0
10
3.980000
20
-2.883000
40
0.136000
41
0.588235
1
01-09-2017
0
TEXT
8
0
10
1.670000
20
-3.330000
40
0.080000
41
1.000000
1
@AUTHOR
0
POLYLINE
8
0
66
1
40
0.018000
41
0.018000
0
VERTEX
8
0
10
3.920000
20
-2.570000
0
VERTEX
8
0
10
3.920000
20
-3.400000
0
SEQEND
8
0
0
POLYLINE
8
0
66
1
40
0.018000
41
0.018000
0
VERTEX
8
0
10
-2.940000
20
3.490000
0
VERTEX
8
0
10
-2.940000
20
3.400000
0
SEQEND
8
0
0
POLYLINE
8
0
66
1
40
0.018000
41
0.018000
0
VERTEX
8
0
10
-1.960000
20
3.490000
0
VERTEX
8
0
10
-1.960000
20
3.400000
0
SEQEND
8
0
0
POLYLINE
8
0
66
1
40
0.018000
41
0.018000
0
VERTEX
8
0
10
-0.980000
20
3.490000
0
VERTEX
8
0
10
-0.980000
20
3.400000
0
SEQEND
8
0
0
POLYLINE
8
0
66
1
40
0.018000
41
0.018000
0
VERTEX
8
0
10
0.000000
20
3.490000
0
VERTEX
8
0
10
0.000000
20
3.400000
0
SEQEND
8
0
0
POLYLINE
8
0
66
1
40
0.018000
41
0.018000
0
VERTEX
8
0
10
0.980000
20
3.490000
0
VERTEX
8
0
10
0.980000
20
3.400000
0
SEQEND
8
0
0
POLYLINE
8
0
66
1
40
0.018000
41
0.018000
0
VERTEX
8
0
10
1.960000
20
3.490000
0
VERTEX
8
0
10
1.960000
20
3.400000
0
SEQEND
8
0
0
POLYLINE
8
0
66
1
40
0.018000
41
0.018000
0
VERTEX
8
0
10
2.940000
20
3.490000
0
VERTEX
8
0
10
2.940000
20
3.400000
0
SEQEND
8
0
0
POLYLINE
8
0
66
1
40
0.018000
41
0.018000
0
VERTEX
8
0
10
3.920000
20
3.490000
0
VERTEX
8
0
10
3.920000
20
3.400000
0
SEQEND
8
0
0
POLYLINE
8
0
66
1
40
0.018000
41
0.018000
0
VERTEX
8
0
10
4.900000
20
3.490000
0
VERTEX
8
0
10
4.900000
20
3.400000
0
SEQEND
8
0
0
POLYLINE
8
0
66
1
40
0.018000
41
0.018000
0
VERTEX
8
0
10
-4.900000
20
-3.400000
0
VERTEX
8
0
10
-4.900000
20
-3.490000
0
SEQEND
8
0
0
POLYLINE
8
0
66
1
40
0.018000
41
0.018000
0
VERTEX
8
0
10
-3.920000
20
-3.400000
0
VERTEX
8
0
10
-3.920000
20
-3.490000
0
SEQEND
8
0
0
POLYLINE
8
0
66
1
40
0.018000
41
0.018000
0
VERTEX
8
0
10
-2.940000
20
-3.400000
0
VERTEX
8
0
10
-2.940000
20
-3.490000
0
SEQEND
8
0
0
POLYLINE
8
0
66
1
40
0.018000
41
0.018000
0
VERTEX
8
0
10
-1.960000
20
-3.400000
0
VERTEX
8
0
10
-1.960000
20
-3.490000
0
SEQEND
8
0
0
POLYLINE
8
0
66
1
40
0.018000
41
0.018000
0
VERTEX
8
0
10
-0.980000
20
-3.400000
0
VERTEX
8
0
10
-0.980000
20
-3.490000
0
SEQEND
8
0
0
POLYLINE
8
0
66
1
40
0.018000
41
0.018000
0
VERTEX
8
0
10
0.000000
20
-3.400000
0
VERTEX
8
0
10
0.000000
20
-3.490000
0
SEQEND
8
0
0
POLYLINE
8
0
66
1
40
0.018000
41
0.018000
0
VERTEX
8
0
10
0.980000
20
-3.400000
0
VERTEX
8
0
10
0.980000
20
-3.490000
0
SEQEND
8
0
0
POLYLINE
8
0
66
1
40
0.018000
41
0.018000
0
VERTEX
8
0
10
1.960000
20
-3.400000
0
VERTEX
8
0
10
1.960000
20
-3.490000
0
SEQEND
8
0
0
POLYLINE
8
0
66
1
40
0.018000
41
0.018000
0
VERTEX
8
0
10
2.940000
20
-3.400000
0
VERTEX
8
0
10
2.940000
20
-3.490000
0
SEQEND
8
0
0
POLYLINE
8
0
66
1
40
0.018000
41
0.018000
0
VERTEX
8
0
10
3.920000
20
-3.400000
0
VERTEX
8
0
10
3.920000
20
-3.490000
0
SEQEND
8
0
0
POLYLINE
8
0
66
1
40
0.018000
41
0.018000
0
VERTEX
8
0
10
4.900000
20
-3.400000
0
VERTEX
8
0
10
4.900000
20
-3.490000
0
SEQEND
8
0
0
POLYLINE
8
0
66
1
40
0.018000
41
0.018000
0
VERTEX
8
0
10
4.900000
20
-3.400000
0
VERTEX
8
0
10
4.990000
20
-3.400000
0
SEQEND
8
0
0
POLYLINE
8
0
66
1
40
0.018000
41
0.018000
0
VERTEX
8
0
10
-4.900000
20
-3.400000
0
VERTEX
8
0
10
-4.990000
20
-3.400000
0
SEQEND
8
0
0
POLYLINE
8
0
66
1
40
0.018000
41
0.018000
0
VERTEX
8
0
10
-4.900000
20
2.720000
0
VERTEX
8
0
10
-4.990000
20
2.720000
0
SEQEND
8
0
0
POLYLINE
8
0
66
1
40
0.018000
41
0.018000
0
VERTEX
8
0
10
-4.900000
20
2.040000
0
VERTEX
8
0
10
-4.990000
20
2.040000
0
SEQEND
8
0
0
POLYLINE
8
0
66
1
40
0.018000
41
0.018000
0
VERTEX
8
0
10
-4.900000
20
1.360000
0
VERTEX
8
0
10
-4.990000
20
1.360000
0
SEQEND
8
0
0
POLYLINE
8
0
66
1
40
0.018000
41
0.018000
0
VERTEX
8
0
10
-4.900000
20
0.680000
0
VERTEX
8
0
10
-4.990000
20
0.680000
0
SEQEND
8
0
0
POLYLINE
8
0
66
1
40
0.018000
41
0.018000
0
VERTEX
8
0
10
-4.900000
20
0.000000
0
VERTEX
8
0
10
-4.990000
20
0.000000
0
SEQEND
8
0
0
POLYLINE
8
0
66
1
40
0.018000
41
0.018000
0
VERTEX
8
0
10
-4.900000
20
-0.680000
0
VERTEX
8
0
10
-4.990000
20
-0.680000
0
SEQEND
8
0
0
POLYLINE
8
0
66
1
40
0.018000
41
0.018000
0
VERTEX
8
0
10
-4.900000
20
-1.360000
0
VERTEX
8
0
10
-4.990000
20
-1.360000
0
SEQEND
8
0
0
POLYLINE
8
0
66
1
40
0.018000
41
0.018000
0
VERTEX
8
0
10
-4.900000
20
-2.040000
0
VERTEX
8
0
10
-4.990000
20
-2.040000
0
SEQEND
8
0
0
POLYLINE
8
0
66
1
40
0.018000
41
0.018000
0
VERTEX
8
0
10
-4.900000
20
-2.720000
0
VERTEX
8
0
10
-4.990000
20
-2.720000
0
SEQEND
8
0
0
POLYLINE
8
0
66
1
40
0.018000
41
0.018000
0
VERTEX
8
0
10
4.990000
20
3.400000
0
VERTEX
8
0
10
4.900000
20
3.400000
0
SEQEND
8
0
0
POLYLINE
8
0
66
1
40
0.018000
41
0.018000
0
VERTEX
8
0
10
4.990000
20
2.720000
0
VERTEX
8
0
10
4.900000
20
2.720000
0
SEQEND
8
0
0
POLYLINE
8
0
66
1
40
0.018000
41
0.018000
0
VERTEX
8
0
10
4.990000
20
2.040000
0
VERTEX
8
0
10
4.900000
20
2.040000
0
SEQEND
8
0
0
POLYLINE
8
0
66
1
40
0.018000
41
0.018000
0
VERTEX
8
0
10
4.990000
20
1.360000
0
VERTEX
8
0
10
4.900000
20
1.360000
0
SEQEND
8
0
0
POLYLINE
8
0
66
1
40
0.018000
41
0.018000
0
VERTEX
8
0
10
4.990000
20
0.680000
0
VERTEX
8
0
10
4.900000
20
0.680000
0
SEQEND
8
0
0
POLYLINE
8
0
66
1
40
0.018000
41
0.018000
0
VERTEX
8
0
10
4.990000
20
0.000000
0
VERTEX
8
0
10
4.900000
20
0.000000
0
SEQEND
8
0
0
POLYLINE
8
0
66
1
40
0.018000
41
0.018000
0
VERTEX
8
0
10
4.990000
20
-0.680000
0
VERTEX
8
0
10
4.900000
20
-0.680000
0
SEQEND
8
0
0
POLYLINE
8
0
66
1
40
0.018000
41
0.018000
0
VERTEX
8
0
10
4.990000
20
-1.360000
0
VERTEX
8
0
10
4.900000
20
-1.360000
0
SEQEND
8
0
0
POLYLINE
8
0
66
1
40
0.018000
41
0.018000
0
VERTEX
8
0
10
4.990000
20
-2.040000
0
VERTEX
8
0
10
4.900000
20
-2.040000
0
SEQEND
8
0
0
POLYLINE
8
0
66
1
40
0.018000
41
0.018000
0
VERTEX
8
0
10
4.990000
20
-2.720000
0
VERTEX
8
0
10
4.900000
20
-2.720000
0
SEQEND
8
0
0
TEXT
8
0
10
-4.450000
20
3.410000
40
0.080000
41
1.000000
1
A
0
TEXT
8
0
10
-3.470000
20
3.400000
40
0.080000
41
1.000000
1
B
0
TEXT
8
0
10
-2.490000
20
3.400000
40
0.080000
41
1.000000
1
C
0
TEXT
8
0
10
-1.510000
20
3.400000
40
0.080000
41
1.000000
1
D
0
TEXT
8
0
10
-0.530000
20
3.400000
40
0.080000
41
1.000000
1
E
0
TEXT
8
0
10
0.450000
20
3.400000
40
0.080000
41
1.000000
1
F
0
TEXT
8
0
10
1.430000
20
3.400000
40
0.080000
41
1.000000
1
G
0
TEXT
8
0
10
2.410000
20
3.400000
40
0.080000
41
1.000000
1
H
0
TEXT
8
0
10
3.390000
20
3.400000
40
0.080000
41
1.000000
1
J
0
TEXT
8
0
10
4.370000
20
3.400000
40
0.080000
41
1.000000
1
K
0
POLYLINE
8
0
66
1
40
0.018000
41
0.018000
0
VERTEX
8
0
10
-3.920000
20
-3.400000
0
VERTEX
8
0
10
-3.920000
20
-3.490000
0
SEQEND
8
0
0
TEXT
8
0
10
-4.450000
20
-3.490000
40
0.080000
41
1.000000
1
A
0
TEXT
8
0
10
-3.470000
20
-3.490000
40
0.080000
41
1.000000
1
B
0
TEXT
8
0
10
-2.490000
20
-3.490000
40
0.080000
41
1.000000
1
C
0
TEXT
8
0
10
-1.510000
20
-3.490000
40
0.080000
41
1.000000
1
D
0
TEXT
8
0
10
-0.530000
20
-3.490000
40
0.080000
41
1.000000
1
E
0
TEXT
8
0
10
0.450000
20
-3.490000
40
0.080000
41
1.000000
1
F
0
TEXT
8
0
10
1.430000
20
-3.490000
40
0.080000
41
1.000000
1
G
0
TEXT
8
0
10
2.410000
20
-3.490000
40
0.080000
41
1.000000
1
H
0
TEXT
8
0
10
3.390000
20
-3.490000
40
0.080000
41
1.000000
1
J
0
TEXT
8
0
10
4.370000
20
-3.490000
40
0.080000
41
1.000000
1
K
0
TEXT
8
0
10
-4.980000
20
3.012000
40
0.096000
41
0.833333
1
0
0
TEXT
8
0
10
-4.980000
20
2.332000
40
0.096000
41
0.833333
1
1
0
TEXT
8
0
10
-4.980000
20
1.652000
40
0.096000
41
0.833333
1
2
0
TEXT
8
0
10
-4.990000
20
0.972000
40
0.096000
41
0.833333
1
3
0
TEXT
8
0
10
-4.990000
20
0.292000
40
0.096000
41
0.833333
1
4
0
TEXT
8
0
10
-4.990000
20
-0.388000
40
0.096000
41
0.833333
1
5
0
TEXT
8
0
10
-4.990000
20
-1.068000
40
0.096000
41
0.833333
1
6
0
TEXT
8
0
10
-4.990000
20
-1.748000
40
0.096000
41
0.833333
1
7
0
TEXT
8
0
10
-4.990000
20
-2.428000
40
0.096000
41
0.833333
1
8
0
TEXT
8
0
10
-4.990000
20
-3.108000
40
0.096000
41
0.833333
1
9
0
TEXT
8
0
10
4.910000
20
3.012000
40
0.096000
41
0.833333
1
0
0
TEXT
8
0
10
4.910000
20
2.332000
40
0.096000
41
0.833333
1
1
0
TEXT
8
0
10
4.910000
20
1.652000
40
0.096000
41
0.833333
1
2
0
TEXT
8
0
10
4.910000
20
0.972000
40
0.096000
41
0.833333
1
3
0
TEXT
8
0
10
4.910000
20
0.292000
40
0.096000
41
0.833333
1
4
0
TEXT
8
0
10
4.910000
20
-0.388000
40
0.096000
41
0.833333
1
5
0
TEXT
8
0
10
4.910000
20
-1.068000
40
0.096000
41
0.833333
1
6
0
TEXT
8
0
10
4.910000
20
-1.748000
40
0.096000
41
0.833333
1
7
0
TEXT
8
0
10
4.910000
20
-2.428000
40
0.096000
41
0.833333
1
8
0
TEXT
8
0
10
4.910000
20
-3.108000
40
0.096000
41
0.833333
1
9
0
TEXT
8
0
10
2.070000
20
-3.148000
40
0.096000
41
0.833333
1
C:\Users\Damodar Mahto\Desktop\Workshop\Proteus-8 Projects\Design 2-LCD-Sim\design.pdsprj
0
TEXT
8
0
10
1.370000
20
-3.140000
40
0.080000
41
1.000000
1
PATH:
0
TEXT
8
0
10
3.960000
20
-3.188000
40
0.096000
41
0.833333
1
1
0
TEXT
8
0
10
4.120000
20
-3.188000
40
0.096000
41
0.833333
1
of
0
TEXT
8
0
10
4.360000
20
-3.188000
40
0.096000
41
0.833333
1
1
0
TEXT
8
0
10
3.190000
20
-3.340000
40
0.080000
41
1.000000
1
REV:
0
TEXT
8
0
10
3.440000
20
-3.348000
40
0.096000
41
0.833333
1
@REV
0
TEXT
8
0
10
3.900000
20
-3.340000
40
0.080000
41
1.000000
1
TIME:
0
TEXT
8
0
10
4.180000
20
-3.340000
40
0.080000
41
1.000000
1
22:15:56
0
TEXT
8
0
10
1.220000
20
-2.930000
40
0.080000
41
1.000000
1
DESIGN TITLE:
0
TEXT
8
0
10
2.070000
20
-2.958000
40
0.136000
41
0.588235
1
design.pdsprj
0
POLYLINE
8
0
66
1
40
0.016000
41
0.016000
0
VERTEX
8
0
10
-2.000000
20
2.100000
0
VERTEX
8
0
10
-2.000000
20
2.000000
0
VERTEX
8
0
10
-2.500000
20
2.000000
0
VERTEX
8
0
10
-2.500000
20
0.400000
0
VERTEX
8
0
10
-1.300000
20
0.400000
0
SEQEND
8
0
0
POLYLINE
8
0
66
1
40
0.016000
41
0.016000
0
VERTEX
8
0
10
-1.900000
20
2.100000
0
VERTEX
8
0
10
-1.900000
20
0.300000
0
VERTEX
8
0
10
-1.300000
20
0.300000
0
SEQEND
8
0
0
POLYLINE
8
0
66
1
40
0.016000
41
0.016000
0
VERTEX
8
0
10
-1.800000
20
2.100000
0
VERTEX
8
0
10
-1.800000
20
0.200000
0
VERTEX
8
0
10
-1.300000
20
0.200000
0
SEQEND
8
0
0
POLYLINE
8
0
66
1
40
0.016000
41
0.016000
0
VERTEX
8
0
10
-1.700000
20
2.100000
0
VERTEX
8
0
10
-1.700000
20
1.500000
0
VERTEX
8
0
10
-2.000000
20
1.500000
0
VERTEX
8
0
10
-2.000000
20
0.100000
0
VERTEX
8
0
10
-1.300000
20
0.100000
0
SEQEND
8
0
0
POLYLINE
8
0
66
1
40
0.016000
41
0.016000
0
VERTEX
8
0
10
-1.600000
20
2.100000
0
VERTEX
8
0
10
-1.600000
20
1.900000
0
VERTEX
8
0
10
-2.100000
20
1.900000
0
VERTEX
8
0
10
-2.100000
20
0.000000
0
VERTEX
8
0
10
-1.300000
20
0.000000
0
SEQEND
8
0
0
POLYLINE
8
0
66
1
40
0.016000
41
0.016000
0
VERTEX
8
0
10
-1.500000
20
2.100000
0
VERTEX
8
0
10
-1.500000
20
1.800000
0
VERTEX
8
0
10
-2.200000
20
1.800000
0
VERTEX
8
0
10
-2.200000
20
-0.100000
0
VERTEX
8
0
10
-1.300000
20
-0.100000
0
SEQEND
8
0
0
POLYLINE
8
0
66
1
40
0.016000
41
0.016000
0
VERTEX
8
0
10
-1.400000
20
2.100000
0
VERTEX
8
0
10
-1.400000
20
1.700000
0
VERTEX
8
0
10
-2.300000
20
1.700000
0
VERTEX
8
0
10
-2.300000
20
-0.200000
0
VERTEX
8
0
10
-1.300000
20
-0.200000
0
SEQEND
8
0
0
POLYLINE
8
0
66
1
40
0.016000
41
0.016000
0
VERTEX
8
0
10
-1.300000
20
2.100000
0
VERTEX
8
0
10
-1.300000
20
1.600000
0
VERTEX
8
0
10
-2.400000
20
1.600000
0
VERTEX
8
0
10
-2.400000
20
-0.300000
0
VERTEX
8
0
10
-1.300000
20
-0.300000
0
SEQEND
8
0
0
POLYLINE
8
0
66
1
40
0.016000
41
0.016000
0
VERTEX
8
0
10
-2.200000
20
2.100000
0
VERTEX
8
0
10
-2.200000
20
1.900000
0
VERTEX
8
0
10
-2.600000
20
1.900000
0
VERTEX
8
0
10
-2.600000
20
0.600000
0
VERTEX
8
0
10
-1.200000
20
0.600000
0
VERTEX
8
0
10
-1.200000
20
0.700000
0
VERTEX
8
0
10
1.000000
20
0.700000
0
VERTEX
8
0
10
1.000000
20
-0.400000
0
VERTEX
8
0
10
0.900000
20
-0.400000
0
SEQEND
8
0
0
POLYLINE
8
0
66
1
40
0.016000
41
0.016000
0
VERTEX
8
0
10
-2.400000
20
2.100000
0
VERTEX
8
0
10
-2.400000
20
1.700000
0
VERTEX
8
0
10
-2.800000
20
1.700000
0
VERTEX
8
0
10
-2.800000
20
2.000000
0
VERTEX
8
0
10
-2.900000
20
2.000000
0
VERTEX
8
0
10
-2.900000
20
-1.400000
0
VERTEX
8
0
10
1.000000
20
-1.400000
0
VERTEX
8
0
10
1.000000
20
-0.600000
0
VERTEX
8
0
10
0.900000
20
-0.600000
0
SEQEND
8
0
0
POLYLINE
8
0
66
1
40
0.016000
41
0.016000
0
VERTEX
8
0
10
-3.400000
20
1.500000
0
VERTEX
8
0
10
-3.400000
20
1.800000
0
VERTEX
8
0
10
-2.300000
20
1.800000
0
VERTEX
8
0
10
-2.300000
20
2.100000
0
SEQEND
8
0
0
POLYLINE
8
0
66
1
40
0.016000
41
0.016000
0
VERTEX
8
0
10
-3.000000
20
2.300000
0
VERTEX
8
0
10
-1.000000
20
2.300000
0
VERTEX
8
0
10
-1.000000
20
3.100000
0
VERTEX
8
0
10
-3.000000
20
3.100000
0
VERTEX
8
0
10
-3.000000
20
2.300000
0
SEQEND
8
0
0
POLYLINE
8
0
66
1
40
0.010000
41
0.010000
0
VERTEX
8
0
10
-2.900000
20
2.580000
0
VERTEX
8
0
10
-1.100000
20
2.580000
0
VERTEX
8
0
10
-1.100000
20
3.020000
0
VERTEX
8
0
10
-2.900000
20
3.020000
0
VERTEX
8
0
10
-2.900000
20
2.580000
0
SEQEND
8
0
0
POLYLINE
8
0
66
1
40
0.016000
41
0.016000
0
VERTEX
8
0
10
-1.300000
20
2.100000
0
VERTEX
8
0
10
-1.300000
20
2.300000
0
SEQEND
8
0
0
TEXT
8
0
10
-1.260000
20
2.350000
40
0.080000
41
1.000000
50
90.000000
1
D7
0
TEXT
8
0
10
-1.310000
20
2.040000
40
0.080000
41
1.000000
50
90.000000
1
14
0
POLYLINE
8
0
66
1
40
0.016000
41
0.016000
0
VERTEX
8
0
10
-1.400000
20
2.100000
0
VERTEX
8
0
10
-1.400000
20
2.300000
0
SEQEND
8
0
0
TEXT
8
0
10
-1.360000
20
2.350000
40
0.080000
41
1.000000
50
90.000000
1
D6
0
TEXT
8
0
10
-1.410000
20
2.040000
40
0.080000
41
1.000000
50
90.000000
1
13
0
POLYLINE
8
0
66
1
40
0.016000
41
0.016000
0
VERTEX
8
0
10
-1.500000
20
2.100000
0
VERTEX
8
0
10
-1.500000
20
2.300000
0
SEQEND
8
0
0
TEXT
8
0
10
-1.460000
20
2.350000
40
0.080000
41
1.000000
50
90.000000
1
D5
0
TEXT
8
0
10
-1.510000
20
2.040000
40
0.080000
41
1.000000
50
90.000000
1
12
0
POLYLINE
8
0
66
1
40
0.016000
41
0.016000
0
VERTEX
8
0
10
-1.600000
20
2.100000
0
VERTEX
8
0
10
-1.600000
20
2.300000
0
SEQEND
8
0
0
TEXT
8
0
10
-1.560000
20
2.350000
40
0.080000
41
1.000000
50
90.000000
1
D4
0
TEXT
8
0
10
-1.610000
20
2.040000
40
0.080000
41
1.000000
50
90.000000
1
11
0
POLYLINE
8
0
66
1
40
0.016000
41
0.016000
0
VERTEX
8
0
10
-1.700000
20
2.100000
0
VERTEX
8
0
10
-1.700000
20
2.300000
0
SEQEND
8
0
0
TEXT
8
0
10
-1.660000
20
2.350000
40
0.080000
41
1.000000
50
90.000000
1
D3
0
TEXT
8
0
10
-1.710000
20
2.040000
40
0.080000
41
1.000000
50
90.000000
1
10
0
POLYLINE
8
0
66
1
40
0.016000
41
0.016000
0
VERTEX
8
0
10
-1.800000
20
2.100000
0
VERTEX
8
0
10
-1.800000
20
2.300000
0
SEQEND
8
0
0
TEXT
8
0
10
-1.760000
20
2.350000
40
0.080000
41
1.000000
50
90.000000
1
D2
0
TEXT
8
0
10
-1.810000
20
2.120000
40
0.080000
41
1.000000
50
90.000000
1
9
0
POLYLINE
8
0
66
1
40
0.016000
41
0.016000
0
VERTEX
8
0
10
-1.900000
20
2.100000
0
VERTEX
8
0
10
-1.900000
20
2.300000
0
SEQEND
8
0
0
TEXT
8
0
10
-1.860000
20
2.350000
40
0.080000
41
1.000000
50
90.000000
1
D1
0
TEXT
8
0
10
-1.910000
20
2.120000
40
0.080000
41
1.000000
50
90.000000
1
8
0
POLYLINE
8
0
66
1
40
0.016000
41
0.016000
0
VERTEX
8
0
10
-2.000000
20
2.100000
0
VERTEX
8
0
10
-2.000000
20
2.300000
0
SEQEND
8
0
0
TEXT
8
0
10
-1.960000
20
2.350000
40
0.080000
41
1.000000
50
90.000000
1
D0
0
TEXT
8
0
10
-2.010000
20
2.120000
40
0.080000
41
1.000000
50
90.000000
1
7
0
POLYLINE
8
0
66
1
40
0.016000
41
0.016000
0
VERTEX
8
0
10
-2.200000
20
2.100000
0
VERTEX
8
0
10
-2.200000
20
2.300000
0
SEQEND
8
0
0
TEXT
8
0
10
-2.160000
20
2.350000
40
0.080000
41
1.000000
50
90.000000
1
E
0
TEXT
8
0
10
-2.210000
20
2.120000
40
0.080000
41
1.000000
50
90.000000
1
6
0
POLYLINE
8
0
66
1
40
0.016000
41
0.016000
0
VERTEX
8
0
10
-2.300000
20
2.100000
0
VERTEX
8
0
10
-2.300000
20
2.300000
0
SEQEND
8
0
0
TEXT
8
0
10
-2.260000
20
2.350000
40
0.080000
41
1.000000
50
90.000000
1
RW
0
TEXT
8
0
10
-2.310000
20
2.120000
40
0.080000
41
1.000000
50
90.000000
1
5
0
POLYLINE
8
0
66
1
40
0.016000
41
0.016000
0
VERTEX
8
0
10
-2.400000
20
2.100000
0
VERTEX
8
0
10
-2.400000
20
2.300000
0
SEQEND
8
0
0
TEXT
8
0
10
-2.360000
20
2.350000
40
0.080000
41
1.000000
50
90.000000
1
RS
0
TEXT
8
0
10
-2.410000
20
2.120000
40
0.080000
41
1.000000
50
90.000000
1
4
0
POLYLINE
8
0
66
1
40
0.016000
41
0.016000
0
VERTEX
8
0
10
-2.800000
20
2.100000
0
VERTEX
8
0
10
-2.800000
20
2.300000
0
SEQEND
8
0
0
TEXT
8
0
10
-2.760000
20
2.350000
40
0.080000
41
1.000000
50
90.000000
1
VSS
0
TEXT
8
0
10
-2.810000
20
2.120000
40
0.080000
41
1.000000
50
90.000000
1
1
0
POLYLINE
8
0
66
1
40
0.016000
41
0.016000
0
VERTEX
8
0
10
-2.700000
20
2.100000
0
VERTEX
8
0
10
-2.700000
20
2.300000
0
SEQEND
8
0
0
TEXT
8
0
10
-2.660000
20
2.350000
40
0.080000
41
1.000000
50
90.000000
1
VDD
0
TEXT
8
0
10
-2.710000
20
2.120000
40
0.080000
41
1.000000
50
90.000000
1
2
0
POLYLINE
8
0
66
1
40
0.016000
41
0.016000
0
VERTEX
8
0
10
-2.600000
20
2.100000
0
VERTEX
8
0
10
-2.600000
20
2.300000
0
SEQEND
8
0
0
TEXT
8
0
10
-2.560000
20
2.350000
40
0.080000
41
1.000000
50
90.000000
1
VEE
0
TEXT
8
0
10
-2.610000
20
2.120000
40
0.080000
41
1.000000
50
90.000000
1
3
0
TEXT
8
0
10
-3.008000
20
3.323000
40
0.120000
41
0.666667
1
LCD1
0
TEXT
8
0
10
-3.008000
20
3.218000
40
0.080000
41
1.000000
1
LM016L
0
POLYLINE
8
0
66
1
40
0.016000
41
0.016000
0
VERTEX
8
0
10
-1.100000
20
-1.200000
0
VERTEX
8
0
10
0.700000
20
-1.200000
0
VERTEX
8
0
10
0.700000
20
0.500000
0
VERTEX
8
0
10
-1.100000
20
0.500000
0
VERTEX
8
0
10
-1.100000
20
-1.200000
0
SEQEND
8
0
0
POLYLINE
8
0
66
1
40
0.016000
41
0.016000
0
VERTEX
8
0
10
-1.300000
20
0.400000
0
VERTEX
8
0
10
-1.100000
20
0.400000
0
SEQEND
8
0
0
TEXT
8
0
10
-1.050000
20
0.360000
40
0.080000
41
1.000000
1
PB0/ICP1
0
TEXT
8
0
10
-1.360000
20
0.410000
40
0.080000
41
1.000000
1
12
0
POLYLINE
8
0
66
1
40
0.016000
41
0.016000
0
VERTEX
8
0
10
-1.300000
20
0.300000
0
VERTEX
8
0
10
-1.100000
20
0.300000
0
SEQEND
8
0
0
TEXT
8
0
10
-1.050000
20
0.260000
40
0.080000
41
1.000000
1
PB1/OC1A
0
TEXT
8
0
10
-1.360000
20
0.310000
40
0.080000
41
1.000000
1
13
0
POLYLINE
8
0
66
1
40
0.016000
41
0.016000
0
VERTEX
8
0
10
-1.300000
20
0.200000
0
VERTEX
8
0
10
-1.100000
20
0.200000
0
SEQEND
8
0
0
TEXT
8
0
10
-1.050000
20
0.160000
40
0.080000
41
1.000000
1
PB2/SS/OC1B
0
TEXT
8
0
10
-1.360000
20
0.210000
40
0.080000
41
1.000000
1
14
0
POLYLINE
8
0
66
1
40
0.016000
41
0.016000
0
VERTEX
8
0
10
-1.300000
20
0.100000
0
VERTEX
8
0
10
-1.100000
20
0.100000
0
SEQEND
8
0
0
TEXT
8
0
10
-1.050000
20
0.060000
40
0.080000
41
1.000000
1
PB3/MOSI/OC2
0
TEXT
8
0
10
-1.360000
20
0.110000
40
0.080000
41
1.000000
1
15
0
POLYLINE
8
0
66
1
40
0.016000
41
0.016000
0
VERTEX
8
0
10
-1.300000
20
0.000000
0
VERTEX
8
0
10
-1.100000
20
0.000000
0
SEQEND
8
0
0
TEXT
8
0
10
-1.050000
20
-0.040000
40
0.080000
41
1.000000
1
PB4/MISO
0
TEXT
8
0
10
-1.360000
20
0.010000
40
0.080000
41
1.000000
1
16
0
POLYLINE
8
0
66
1
40
0.016000
41
0.016000
0
VERTEX
8
0
10
-1.300000
20
-0.100000
0
VERTEX
8
0
10
-1.100000
20
-0.100000
0
SEQEND
8
0
0
TEXT
8
0
10
-1.050000
20
-0.140000
40
0.080000
41
1.000000
1
PB5/SCK
0
TEXT
8
0
10
-1.360000
20
-0.090000
40
0.080000
41
1.000000
1
17
0
POLYLINE
8
0
66
1
40
0.016000
41
0.016000
0
VERTEX
8
0
10
-1.300000
20
-0.200000
0
VERTEX
8
0
10
-1.100000
20
-0.200000
0
SEQEND
8
0
0
TEXT
8
0
10
-1.050000
20
-0.240000
40
0.080000
41
1.000000
1
PB6/TOSC1/XTAL1
0
TEXT
8
0
10
-1.280000
20
-0.190000
40
0.080000
41
1.000000
1
7
0
POLYLINE
8
0
66
1
40
0.016000
41
0.016000
0
VERTEX
8
0
10
-1.300000
20
-0.300000
0
VERTEX
8
0
10
-1.100000
20
-0.300000
0
SEQEND
8
0
0
TEXT
8
0
10
-1.050000
20
-0.340000
40
0.080000
41
1.000000
1
PB7/TOSC2/XTAL2
0
TEXT
8
0
10
-1.280000
20
-0.290000
40
0.080000
41
1.000000
1
8
0
POLYLINE
8
0
66
1
40
0.016000
41
0.016000
0
VERTEX
8
0
10
0.900000
20
-0.200000
0
VERTEX
8
0
10
0.700000
20
-0.200000
0
SEQEND
8
0
0
TEXT
8
0
10
-0.070000
20
-0.240000
40
0.080000
41
1.000000
1
PC6/RESET
0
TEXT
8
0
10
0.800000
20
-0.190000
40
0.080000
41
1.000000
1
29
0
POLYLINE
8
0
66
1
40
0.016000
41
0.016000
0
VERTEX
8
0
10
0.900000
20
-0.400000
0
VERTEX
8
0
10
0.700000
20
-0.400000
0
SEQEND
8
0
0
TEXT
8
0
10
0.090000
20
-0.440000
40
0.080000
41
1.000000
1
PD0/RXD
0
TEXT
8
0
10
0.800000
20
-0.390000
40
0.080000
41
1.000000
1
30
0
POLYLINE
8
0
66
1
40
0.016000
41
0.016000
0
VERTEX
8
0
10
0.900000
20
-0.500000
0
VERTEX
8
0
10
0.700000
20
-0.500000
0
SEQEND
8
0
0
TEXT
8
0
10
0.090000
20
-0.540000
40
0.080000
41
1.000000
1
PD1/TXD
0
TEXT
8
0
10
0.800000
20
-0.490000
40
0.080000
41
1.000000
1
31
0
POLYLINE
8
0
66
1
40
0.016000
41
0.016000
0
VERTEX
8
0
10
0.900000
20
-0.600000
0
VERTEX
8
0
10
0.700000
20
-0.600000
0
SEQEND
8
0
0
TEXT
8
0
10
0.010000
20
-0.640000
40
0.080000
41
1.000000
1
PD2/INT0
0
TEXT
8
0
10
0.800000
20
-0.590000
40
0.080000
41
1.000000
1
32
0
POLYLINE
8
0
66
1
40
0.016000
41
0.016000
0
VERTEX
8
0
10
0.900000
20
-0.700000
0
VERTEX
8
0
10
0.700000
20
-0.700000
0
SEQEND
8
0
0
TEXT
8
0
10
0.010000
20
-0.740000
40
0.080000
41
1.000000
1
PD3/INT1
0
TEXT
8
0
10
0.800000
20
-0.690000
40
0.080000
41
1.000000
1
1
0
POLYLINE
8
0
66
1
40
0.016000
41
0.016000
0
VERTEX
8
0
10
0.900000
20
-0.800000
0
VERTEX
8
0
10
0.700000
20
-0.800000
0
SEQEND
8
0
0
TEXT
8
0
10
-0.150000
20
-0.840000
40
0.080000
41
1.000000
1
PD4/T0/XCK
0
TEXT
8
0
10
0.800000
20
-0.790000
40
0.080000
41
1.000000
1
2
0
POLYLINE
8
0
66
1
40
0.016000
41
0.016000
0
VERTEX
8
0
10
0.900000
20
-0.900000
0
VERTEX
8
0
10
0.700000
20
-0.900000
0
SEQEND
8
0
0
TEXT
8
0
10
0.170000
20
-0.940000
40
0.080000
41
1.000000
1
PD5/T1
0
TEXT
8
0
10
0.800000
20
-0.890000
40
0.080000
41
1.000000
1
9
0
POLYLINE
8
0
66
1
40
0.016000
41
0.016000
0
VERTEX
8
0
10
0.900000
20
-1.000000
0
VERTEX
8
0
10
0.700000
20
-1.000000
0
SEQEND
8
0
0
TEXT
8
0
10
0.010000
20
-1.040000
40
0.080000
41
1.000000
1
PD6/AIN0
0
TEXT
8
0
10
0.800000
20
-0.990000
40
0.080000
41
1.000000
1
10
0
POLYLINE
8
0
66
1
40
0.016000
41
0.016000
0
VERTEX
8
0
10
0.900000
20
-1.100000
0
VERTEX
8
0
10
0.700000
20
-1.100000
0
SEQEND
8
0
0
TEXT
8
0
10
0.010000
20
-1.140000
40
0.080000
41
1.000000
1
PD7/AIN1
0
TEXT
8
0
10
0.800000
20
-1.090000
40
0.080000
41
1.000000
1
11
0
POLYLINE
8
0
66
1
40
0.016000
41
0.016000
0
VERTEX
8
0
10
0.900000
20
0.400000
0
VERTEX
8
0
10
0.700000
20
0.400000
0
SEQEND
8
0
0
TEXT
8
0
10
0.010000
20
0.360000
40
0.080000
41
1.000000
1
PC0/ADC0
0
TEXT
8
0
10
0.800000
20
0.410000
40
0.080000
41
1.000000
1
23
0
POLYLINE
8
0
66
1
40
0.016000
41
0.016000
0
VERTEX
8
0
10
0.900000
20
0.300000
0
VERTEX
8
0
10
0.700000
20
0.300000
0
SEQEND
8
0
0
TEXT
8
0
10
0.010000
20
0.260000
40
0.080000
41
1.000000
1
PC1/ADC1
0
TEXT
8
0
10
0.800000
20
0.310000
40
0.080000
41
1.000000
1
24
0
POLYLINE
8
0
66
1
40
0.016000
41
0.016000
0
VERTEX
8
0
10
0.900000
20
0.200000
0
VERTEX
8
0
10
0.700000
20
0.200000
0
SEQEND
8
0
0
TEXT
8
0
10
0.010000
20
0.160000
40
0.080000
41
1.000000
1
PC2/ADC2
0
TEXT
8
0
10
0.800000
20
0.210000
40
0.080000
41
1.000000
1
25
0
POLYLINE
8
0
66
1
40
0.016000
41
0.016000
0
VERTEX
8
0
10
0.900000
20
0.100000
0
VERTEX
8
0
10
0.700000
20
0.100000
0
SEQEND
8
0
0
TEXT
8
0
10
0.010000
20
0.060000
40
0.080000
41
1.000000
1
PC3/ADC3
0
TEXT
8
0
10
0.800000
20
0.110000
40
0.080000
41
1.000000
1
26
0
POLYLINE
8
0
66
1
40
0.016000
41
0.016000
0
VERTEX
8
0
10
0.900000
20
0.000000
0
VERTEX
8
0
10
0.700000
20
0.000000
0
SEQEND
8
0
0
TEXT
8
0
10
-0.310000
20
-0.040000
40
0.080000
41
1.000000
1
PC4/ADC4/SDA
0
TEXT
8
0
10
0.800000
20
0.010000
40
0.080000
41
1.000000
1
27
0
POLYLINE
8
0
66
1
40
0.016000
41
0.016000
0
VERTEX
8
0
10
0.900000
20
-0.100000
0
VERTEX
8
0
10
0.700000
20
-0.100000
0
SEQEND
8
0
0
TEXT
8
0
10
-0.310000
20
-0.140000
40
0.080000
41
1.000000
1
PC5/ADC5/SCL
0
TEXT
8
0
10
0.800000
20
-0.090000
40
0.080000
41
1.000000
1
28
0
POLYLINE
8
0
66
1
40
0.016000
41
0.016000
0
VERTEX
8
0
10
-1.300000
20
-1.000000
0
VERTEX
8
0
10
-1.100000
20
-1.000000
0
SEQEND
8
0
0
TEXT
8
0
10
-1.050000
20
-1.040000
40
0.080000
41
1.000000
1
AREF
0
TEXT
8
0
10
-1.360000
20
-0.990000
40
0.080000
41
1.000000
1
20
0
POLYLINE
8
0
66
1
40
0.016000
41
0.016000
0
VERTEX
8
0
10
-1.300000
20
-1.100000
0
VERTEX
8
0
10
-1.100000
20
-1.100000
0
SEQEND
8
0
0
TEXT
8
0
10
-1.050000
20
-1.140000
40
0.080000
41
1.000000
1
AVCC
0
TEXT
8
0
10
-1.360000
20
-1.090000
40
0.080000
41
1.000000
1
18
0
POLYLINE
8
0
66
1
40
0.016000
41
0.016000
0
VERTEX
8
0
10
-1.300000
20
-0.800000
0
VERTEX
8
0
10
-1.100000
20
-0.800000
0
SEQEND
8
0
0
TEXT
8
0
10
-1.050000
20
-0.840000
40
0.080000
41
1.000000
1
ADC7
0
TEXT
8
0
10
-1.360000
20
-0.790000
40
0.080000
41
1.000000
1
22
0
POLYLINE
8
0
66
1
40
0.016000
41
0.016000
0
VERTEX
8
0
10
-1.300000
20
-0.700000
0
VERTEX
8
0
10
-1.100000
20
-0.700000
0
SEQEND
8
0
0
TEXT
8
0
10
-1.050000
20
-0.740000
40
0.080000
41
1.000000
1
ADC6
0
TEXT
8
0
10
-1.360000
20
-0.690000
40
0.080000
41
1.000000
1
19
0
TEXT
8
0
10
-1.108000
20
0.523000
40
0.120000
41
0.666667
1
U1
0
TEXT
8
0
10
-1.108000
20
-1.298000
40
0.080000
41
1.000000
1
ATMEGA8
0
POLYLINE
8
0
66
1
40
0.016000
41
0.016000
0
VERTEX
8
0
10
-3.400000
20
1.500000
0
VERTEX
8
0
10
-3.400000
20
1.400000
0
SEQEND
8
0
0
POLYLINE
8
0
66
1
40
0.016000
41
0.016000
0
VERTEX
8
0
10
-3.500000
20
1.400000
0
VERTEX
8
0
10
-3.300000
20
1.400000
0
SEQEND
8
0
0
POLYLINE
8
0
66
1
40
0.016000
41
0.016000
0
VERTEX
8
0
10
-3.450000
20
1.350000
0
VERTEX
8
0
10
-3.350000
20
1.350000
0
SEQEND
8
0
0
POLYLINE
8
0
66
1
40
0.016000
41
0.016000
0
VERTEX
8
0
10
-3.410000
20
1.300000
0
VERTEX
8
0
10
-3.390000
20
1.300000
0
SEQEND
8
0
0
ENDSEC
0
EOF

